<svg width="170" height="205" viewBox="0 0 170 205" fill="none" xmlns="http://www.w3.org/2000/svg">
<path d="M70.0762 121.594H66.4805L65.7969 123.645H63.6162L67.3213 113.691H69.2217L72.9473 123.645H70.7666L70.0762 121.594ZM67.0342 119.933H69.5225L68.2715 116.207L67.0342 119.933ZM73.4395 119.892C73.4395 118.739 73.697 117.82 74.2119 117.137C74.7315 116.453 75.4401 116.111 76.3379 116.111C77.058 116.111 77.6527 116.38 78.1221 116.918V113.145H80.1045V123.645H78.3203L78.2246 122.858C77.7324 123.474 77.099 123.781 76.3242 123.781C75.4538 123.781 74.7543 123.439 74.2256 122.756C73.7015 122.068 73.4395 121.113 73.4395 119.892ZM75.4151 120.035C75.4151 120.728 75.5358 121.259 75.7774 121.628C76.0189 121.997 76.3698 122.182 76.8301 122.182C77.4408 122.182 77.8714 121.924 78.1221 121.409V118.49C77.876 117.975 77.4499 117.718 76.8438 117.718C75.8913 117.718 75.4151 118.49 75.4151 120.035ZM81.3282 119.878C81.3282 119.144 81.4694 118.49 81.752 117.916C82.0345 117.342 82.4401 116.897 82.9688 116.583C83.502 116.269 84.1195 116.111 84.8213 116.111C85.8194 116.111 86.6328 116.417 87.2617 117.027C87.8952 117.638 88.2484 118.467 88.3213 119.516L88.335 120.021C88.335 121.156 88.0183 122.068 87.3848 122.756C86.7513 123.439 85.9014 123.781 84.835 123.781C83.7686 123.781 82.9164 123.439 82.2783 122.756C81.6449 122.072 81.3282 121.143 81.3282 119.967V119.878ZM83.3037 120.021C83.3037 120.723 83.4359 121.261 83.7002 121.635C83.9645 122.004 84.3428 122.188 84.835 122.188C85.3135 122.188 85.6872 122.006 85.9561 121.642C86.225 121.272 86.3594 120.685 86.3594 119.878C86.3594 119.19 86.225 118.657 85.9561 118.278C85.6872 117.9 85.3089 117.711 84.8213 117.711C84.3382 117.711 83.9645 117.9 83.7002 118.278C83.4359 118.652 83.3037 119.233 83.3037 120.021ZM96.2168 120.015C96.2168 121.2 95.9639 122.125 95.458 122.79C94.9522 123.451 94.2458 123.781 93.3389 123.781C92.5368 123.781 91.8965 123.474 91.418 122.858L91.3291 123.645H89.5518V113.145H91.5274V116.911C91.9831 116.378 92.5824 116.111 93.3252 116.111C94.2276 116.111 94.9339 116.444 95.4444 117.109C95.9593 117.77 96.2168 118.702 96.2168 119.905V120.015ZM94.2412 119.871C94.2412 119.124 94.1227 118.579 93.8858 118.237C93.6488 117.891 93.2956 117.718 92.8262 117.718C92.1973 117.718 91.7643 117.975 91.5274 118.49V121.409C91.7689 121.929 92.2064 122.188 92.8399 122.188C93.4779 122.188 93.8972 121.874 94.0977 121.245C94.1934 120.944 94.2412 120.486 94.2412 119.871ZM100.845 123.781C99.7601 123.781 98.876 123.449 98.1924 122.783C97.5134 122.118 97.1739 121.231 97.1739 120.124V119.933C97.1739 119.19 97.3174 118.527 97.6045 117.943C97.8916 117.355 98.2972 116.904 98.8213 116.59C99.35 116.271 99.9515 116.111 100.626 116.111C101.638 116.111 102.433 116.43 103.012 117.068C103.595 117.706 103.887 118.611 103.887 119.782V120.589H99.1768C99.2406 121.072 99.432 121.459 99.751 121.751C100.075 122.043 100.482 122.188 100.975 122.188C101.736 122.188 102.33 121.913 102.759 121.361L103.73 122.448C103.433 122.868 103.032 123.196 102.526 123.433C102.021 123.665 101.46 123.781 100.845 123.781ZM100.619 117.711C100.227 117.711 99.9082 117.843 99.6621 118.107C99.4206 118.372 99.2657 118.75 99.1973 119.242H101.945V119.085C101.936 118.647 101.818 118.31 101.59 118.073C101.362 117.832 101.038 117.711 100.619 117.711ZM52.2754 137.594H48.6797L47.9961 139.645H45.8155L49.5205 129.691H51.4209L55.1465 139.645H52.9658L52.2754 137.594ZM49.2334 135.933H51.7217L50.4707 132.207L49.2334 135.933ZM56.4864 139.645V133.697H55.3858V132.248H56.4864V131.619C56.4864 130.79 56.7233 130.147 57.1973 129.691C57.6758 129.231 58.3435 129.001 59.2002 129.001C59.4737 129.001 59.8086 129.047 60.2051 129.138L60.1846 130.669C60.0205 130.628 59.82 130.607 59.583 130.607C58.8402 130.607 58.4688 130.956 58.4688 131.653V132.248H59.9385V133.697H58.4688V139.645H56.4864ZM63.3291 130.43V132.248H64.5938V133.697H63.3291V137.389C63.3291 137.662 63.3815 137.858 63.4864 137.977C63.5912 138.095 63.7917 138.154 64.0879 138.154C64.3067 138.154 64.5004 138.138 64.669 138.106V139.604C64.2816 139.722 63.8828 139.781 63.4727 139.781C62.0873 139.781 61.3809 139.082 61.3535 137.683V133.697H60.2735V132.248H61.3535V130.43H63.3291ZM69.0987 139.781C68.014 139.781 67.1299 139.449 66.4463 138.783C65.7673 138.118 65.4278 137.231 65.4278 136.124V135.933C65.4278 135.19 65.5713 134.527 65.8584 133.943C66.1455 133.355 66.5511 132.904 67.0752 132.59C67.6039 132.271 68.2054 132.111 68.8799 132.111C69.8916 132.111 70.6869 132.43 71.2657 133.068C71.849 133.706 72.1407 134.611 72.1407 135.782V136.589H67.4307C67.4945 137.072 67.6859 137.459 68.0049 137.751C68.3285 138.043 68.7364 138.188 69.2285 138.188C69.9896 138.188 70.5843 137.913 71.0127 137.361L71.9834 138.448C71.6872 138.868 71.2862 139.196 70.7803 139.433C70.2744 139.665 69.7139 139.781 69.0987 139.781ZM68.8731 133.711C68.4811 133.711 68.1621 133.843 67.916 134.107C67.6745 134.372 67.5196 134.75 67.4512 135.242H70.1992V135.085C70.1901 134.647 70.0716 134.31 69.8438 134.073C69.6159 133.832 69.2923 133.711 68.8731 133.711ZM77.4248 134.101C77.156 134.064 76.919 134.046 76.7139 134.046C75.9665 134.046 75.4766 134.299 75.2442 134.805V139.645H73.2686V132.248H75.1348L75.1895 133.13C75.586 132.451 76.1351 132.111 76.8369 132.111C77.0557 132.111 77.2608 132.141 77.4522 132.2L77.4248 134.101ZM87.9864 135.331H84.0489V137.997H88.6699V139.645H81.9981V129.691H88.6563V131.353H84.0489V133.725H87.9864V135.331ZM90.1602 139.645V133.697H89.0596V132.248H90.1602V131.619C90.1602 130.79 90.3972 130.147 90.8711 129.691C91.3496 129.231 92.0173 129.001 92.8741 129.001C93.1475 129.001 93.4824 129.047 93.8789 129.138L93.8584 130.669C93.6944 130.628 93.4938 130.607 93.2569 130.607C92.514 130.607 92.1426 130.956 92.1426 131.653V132.248H93.6123V133.697H92.1426V139.645H90.1602ZM95.1778 139.645V133.697H94.0772V132.248H95.1778V131.619C95.1778 130.79 95.4147 130.147 95.8887 129.691C96.3672 129.231 97.0349 129.001 97.8916 129.001C98.1651 129.001 98.5 129.047 98.8965 129.138L98.876 130.669C98.7119 130.628 98.5114 130.607 98.2744 130.607C97.5316 130.607 97.1602 130.956 97.1602 131.653V132.248H98.6299V133.697H97.1602V139.645H95.1778ZM102.896 139.781C101.811 139.781 100.927 139.449 100.243 138.783C99.5642 138.118 99.2246 137.231 99.2246 136.124V135.933C99.2246 135.19 99.3682 134.527 99.6553 133.943C99.9424 133.355 100.348 132.904 100.872 132.59C101.401 132.271 102.002 132.111 102.677 132.111C103.689 132.111 104.484 132.43 105.063 133.068C105.646 133.706 105.938 134.611 105.938 135.782V136.589H101.228C101.291 137.072 101.483 137.459 101.802 137.751C102.125 138.043 102.533 138.188 103.025 138.188C103.786 138.188 104.381 137.913 104.81 137.361L105.78 138.448C105.484 138.868 105.083 139.196 104.577 139.433C104.071 139.665 103.511 139.781 102.896 139.781ZM102.67 133.711C102.278 133.711 101.959 133.843 101.713 134.107C101.471 134.372 101.316 134.75 101.248 135.242H103.996V135.085C103.987 134.647 103.869 134.31 103.641 134.073C103.413 133.832 103.089 133.711 102.67 133.711ZM110.142 138.188C110.506 138.188 110.802 138.088 111.03 137.888C111.258 137.687 111.377 137.421 111.386 137.088H113.238C113.234 137.589 113.097 138.049 112.828 138.469C112.559 138.883 112.19 139.207 111.721 139.439C111.256 139.667 110.741 139.781 110.176 139.781C109.119 139.781 108.285 139.446 107.674 138.776C107.063 138.102 106.758 137.172 106.758 135.987V135.857C106.758 134.718 107.061 133.809 107.667 133.13C108.273 132.451 109.105 132.111 110.162 132.111C111.087 132.111 111.828 132.376 112.384 132.904C112.944 133.428 113.229 134.128 113.238 135.003H111.386C111.377 134.62 111.258 134.31 111.03 134.073C110.802 133.832 110.502 133.711 110.128 133.711C109.668 133.711 109.319 133.88 109.082 134.217C108.85 134.549 108.733 135.092 108.733 135.844V136.049C108.733 136.81 108.85 137.357 109.082 137.689C109.314 138.022 109.668 138.188 110.142 138.188ZM116.731 130.43V132.248H117.996V133.697H116.731V137.389C116.731 137.662 116.784 137.858 116.889 137.977C116.994 138.095 117.194 138.154 117.49 138.154C117.709 138.154 117.903 138.138 118.071 138.106V139.604C117.684 139.722 117.285 139.781 116.875 139.781C115.49 139.781 114.783 139.082 114.756 137.683V133.697H113.676V132.248H114.756V130.43H116.731ZM123.103 137.601C123.103 137.359 122.982 137.17 122.74 137.033C122.503 136.892 122.12 136.767 121.592 136.657C119.833 136.288 118.953 135.541 118.953 134.415C118.953 133.759 119.224 133.212 119.767 132.774C120.314 132.332 121.027 132.111 121.906 132.111C122.845 132.111 123.595 132.332 124.155 132.774C124.72 133.216 125.003 133.791 125.003 134.497H123.027C123.027 134.215 122.936 133.982 122.754 133.8C122.572 133.613 122.287 133.52 121.899 133.52C121.567 133.52 121.309 133.595 121.127 133.745C120.945 133.896 120.854 134.087 120.854 134.319C120.854 134.538 120.956 134.716 121.161 134.853C121.371 134.985 121.722 135.101 122.214 135.201C122.706 135.297 123.121 135.406 123.458 135.529C124.502 135.912 125.023 136.575 125.023 137.519C125.023 138.193 124.734 138.74 124.155 139.159C123.577 139.574 122.829 139.781 121.913 139.781C121.293 139.781 120.742 139.672 120.259 139.453C119.78 139.23 119.404 138.927 119.131 138.544C118.857 138.157 118.721 137.74 118.721 137.293H120.594C120.612 137.644 120.742 137.913 120.983 138.1C121.225 138.286 121.549 138.38 121.954 138.38C122.332 138.38 122.617 138.309 122.809 138.168C123.005 138.022 123.103 137.833 123.103 137.601Z" fill="#828282"/>
<path d="M43.8555 3.75977H127.354V84.2652H43.8555V3.75977Z" fill="url(#paint0_radial)"/>
<path d="M43.8556 3.76042H127.355V84.2659H43.8556V3.76042ZM40.061 88.0263H131.167V0H40.061V88.0263ZM104.514 42.4313C106.448 42.4313 107.141 42.4313 107.324 42.3589C107.324 42.0877 107.397 41.907 107.397 41.7262C107.397 39.7013 106.411 35.9409 102.471 35.9409C98.8222 35.9409 97.2716 39.1047 96.8885 42.4493H104.514V42.4313ZM96.8155 47.5837C96.8885 52.6639 99.3148 56.0808 105.098 56.0808C107.342 56.0808 109.276 55.7735 111.282 54.9238C111.556 54.8153 111.738 54.8515 111.738 55.195V59.8955C111.738 60.2752 111.629 60.4559 111.355 60.6548C109.349 61.6311 106.831 62.083 103.73 62.083C93.7142 62.083 89.9561 54.743 89.9561 46.5894C89.9561 37.7127 94.5898 30.4449 102.745 30.4449C111.027 30.4449 113.909 37.333 113.909 42.9375C113.909 44.7454 113.8 46.2097 113.599 46.9329C113.526 47.2402 113.417 47.3487 113.107 47.421C112.34 47.5295 110.115 47.6922 106.776 47.6922H96.8337V47.5837H96.8155ZM76.4561 43.751C75.398 39.5748 72.8075 30.4811 71.8589 26.0698H71.7859C70.9832 30.463 68.9035 37.9115 67.3528 43.751H76.4561ZM65.8021 49.8436L62.8103 61.0887C62.7373 61.396 62.6278 61.5045 62.2447 61.5045H56.6441C56.261 61.5045 56.188 61.396 56.261 60.9441L67.0427 23.593C67.2251 22.9241 67.3528 22.3817 67.4258 20.5015C67.4258 20.2303 67.5352 20.1219 67.7359 20.1219H75.7082C75.9818 20.1219 76.0913 20.1942 76.1642 20.5015L88.223 61.0164C88.2959 61.3237 88.223 61.5045 87.9128 61.5045H81.6554C81.3453 61.5045 81.1629 61.396 81.0899 61.1249L77.9703 49.8436H65.8021Z" fill="#D8A1FF"/>
<path d="M12.365 181.992C12.6697 181.082 13.9568 181.082 14.2615 181.992L16.0738 187.405C16.2103 187.813 16.5921 188.088 17.022 188.088H22.8212C23.7972 188.088 24.1951 189.342 23.3975 189.905L18.7579 193.176C18.3969 193.431 18.2457 193.892 18.3859 194.311L20.1702 199.64C20.4769 200.556 19.4352 201.331 18.6457 200.775L13.8895 197.421C13.544 197.178 13.0826 197.178 12.737 197.421L7.98087 200.775C7.19134 201.331 6.14965 200.556 6.45636 199.64L8.24061 194.311C8.38087 193.892 8.22963 193.431 7.86859 193.176L3.22903 189.905C2.43139 189.342 2.8293 188.088 3.80527 188.088H9.6045C10.0344 188.088 10.4163 187.813 10.5528 187.405L12.365 181.992Z" fill="#070707"/>
<path d="M48.2087 181.992C48.5134 181.082 49.8006 181.082 50.1053 181.992L51.9175 187.405C52.054 187.813 52.4358 188.088 52.8658 188.088H58.665C59.641 188.088 60.0389 189.342 59.2412 189.905L54.6017 193.176C54.2406 193.431 54.0894 193.892 54.2297 194.311L56.0139 199.64C56.3206 200.556 55.2789 201.331 54.4894 200.775L49.7333 197.421C49.3877 197.178 48.9263 197.178 48.5808 197.421L43.8246 200.775C43.0351 201.331 41.9934 200.556 42.3001 199.64L44.0844 194.311C44.2246 193.892 44.0734 193.431 43.7123 193.176L39.0728 189.905C38.2751 189.342 38.6731 188.088 39.649 188.088H45.4482C45.8782 188.088 46.26 187.813 46.3965 187.405L48.2087 181.992Z" fill="#070707"/>
<path d="M84.0525 181.992C84.3572 181.082 85.6443 181.082 85.949 181.992L87.7613 187.405C87.8978 187.813 88.2796 188.088 88.7095 188.088H94.5087C95.4847 188.088 95.8826 189.342 95.085 189.905L90.4454 193.176C90.0844 193.431 89.9332 193.892 90.0734 194.311L91.8577 199.64C92.1644 200.556 91.1227 201.331 90.3332 200.775L85.577 197.421C85.2315 197.178 84.7701 197.178 84.4245 197.421L79.6684 200.775C78.8788 201.331 77.8372 200.556 78.1439 199.64L79.9281 194.311C80.0684 193.892 79.9171 193.431 79.5561 193.176L74.9165 189.905C74.1189 189.342 74.5168 188.088 75.4928 188.088H81.292C81.7219 188.088 82.1038 187.813 82.2403 187.405L84.0525 181.992Z" fill="#070707"/>
<path d="M119.895 181.992C120.2 181.082 121.487 181.082 121.792 181.992L123.604 187.405C123.741 187.813 124.122 188.088 124.552 188.088H130.352C131.327 188.088 131.725 189.342 130.928 189.905L126.288 193.176C125.927 193.431 125.776 193.892 125.916 194.311L127.7 199.64C128.007 200.556 126.965 201.331 126.176 200.775L121.42 197.421C121.074 197.178 120.613 197.178 120.267 197.421L115.511 200.775C114.722 201.331 113.68 200.556 113.987 199.64L115.771 194.311C115.911 193.892 115.76 193.431 115.399 193.176L110.759 189.905C109.962 189.342 110.36 188.088 111.336 188.088H117.135C117.565 188.088 117.947 187.813 118.083 187.405L119.895 181.992Z" fill="#070707"/>
<path d="M155.738 181.992C156.043 181.082 157.33 181.082 157.635 181.992L159.447 187.405C159.583 187.813 159.965 188.088 160.395 188.088H166.194C167.17 188.088 167.568 189.342 166.771 189.905L162.131 193.176C161.77 193.431 161.619 193.892 161.759 194.311L163.543 199.64C163.85 200.556 162.808 201.331 162.019 200.775L157.263 197.421C156.917 197.178 156.456 197.178 156.11 197.421L151.354 200.775C150.564 201.331 149.523 200.556 149.829 199.64L151.614 194.311C151.754 193.892 151.603 193.431 151.242 193.176L146.602 189.905C145.804 189.342 146.202 188.088 147.178 188.088H152.978C153.407 188.088 153.789 187.813 153.926 187.405L155.738 181.992Z" fill="#E5E5E5"/>
<defs>
<radialGradient id="paint0_radial" cx="0" cy="0" r="1" gradientUnits="userSpaceOnUse" gradientTransform="translate(71.381 21.809) scale(63.4619 60.8896)">
<stop stop-color="#442F55" stop-opacity="0.98"/>
<stop offset="1" stop-color="#12002C"/>
</radialGradient>
</defs>
</svg>
