<svg width="170" height="205" viewBox="0 0 170 205" fill="none" xmlns="http://www.w3.org/2000/svg">
<path d="M74.4519 121.356H70.5144V125.424H68.4636V115.471H74.944V117.132H70.5144V119.702H74.4519V121.356ZM78.0886 125.424H76.1062V118.027H78.0886V125.424ZM75.9899 116.113C75.9899 115.817 76.0879 115.573 76.2839 115.382C76.4844 115.19 76.7556 115.095 77.0974 115.095C77.4346 115.095 77.7035 115.19 77.904 115.382C78.1045 115.573 78.2048 115.817 78.2048 116.113C78.2048 116.414 78.1022 116.66 77.8972 116.852C77.6967 117.043 77.43 117.139 77.0974 117.139C76.7647 117.139 76.4958 117.043 76.2907 116.852C76.0902 116.66 75.9899 116.414 75.9899 116.113ZM79.4353 121.671C79.4353 120.536 79.7041 119.622 80.2419 118.93C80.7842 118.237 81.5134 117.891 82.4294 117.891C83.2406 117.891 83.8718 118.169 84.323 118.725L84.405 118.027H86.196V125.178C86.196 125.825 86.0479 126.388 85.7517 126.866C85.46 127.345 85.0476 127.709 84.5144 127.96C83.9812 128.211 83.3568 128.336 82.6413 128.336C82.099 128.336 81.5703 128.227 81.0554 128.008C80.5404 127.794 80.1508 127.516 79.8864 127.174L80.7614 125.971C81.2536 126.522 81.8506 126.798 82.5524 126.798C83.0765 126.798 83.4844 126.657 83.7761 126.374C84.0677 126.096 84.2136 125.7 84.2136 125.185V124.788C83.7578 125.303 83.1586 125.561 82.4157 125.561C81.5271 125.561 80.807 125.214 80.2556 124.521C79.7087 123.824 79.4353 122.901 79.4353 121.753V121.671ZM81.4108 121.814C81.4108 122.484 81.5453 123.011 81.8142 123.394C82.083 123.772 82.4522 123.961 82.9216 123.961C83.5231 123.961 83.9538 123.735 84.2136 123.284V120.174C83.9493 119.723 83.5231 119.497 82.9353 119.497C82.4613 119.497 82.0876 119.691 81.8142 120.078C81.5453 120.465 81.4108 121.044 81.4108 121.814ZM89.573 118.027L89.6345 118.854C90.1586 118.212 90.8672 117.891 91.7605 117.891C92.7129 117.891 93.3669 118.267 93.7224 119.019C94.2419 118.267 94.9825 117.891 95.944 117.891C96.7461 117.891 97.3431 118.125 97.7351 118.595C98.127 119.06 98.323 119.761 98.323 120.7V125.424H96.3405V120.707C96.3405 120.288 96.2585 119.982 96.0944 119.791C95.9304 119.595 95.641 119.497 95.2263 119.497C94.6338 119.497 94.2237 119.78 93.9958 120.345L94.0026 125.424H92.0271V120.714C92.0271 120.285 91.9427 119.976 91.7741 119.784C91.6055 119.593 91.3184 119.497 90.9128 119.497C90.3522 119.497 89.9467 119.729 89.696 120.194V125.424H87.7204V118.027H89.573ZM104.133 125.424C104.042 125.246 103.976 125.025 103.935 124.761C103.457 125.294 102.835 125.561 102.069 125.561C101.344 125.561 100.743 125.351 100.264 124.932C99.7904 124.512 99.5534 123.984 99.5534 123.346C99.5534 122.562 99.8428 121.96 100.422 121.541C101.005 121.122 101.846 120.91 102.944 120.905H103.853V120.481C103.853 120.14 103.764 119.866 103.587 119.661C103.413 119.456 103.138 119.354 102.759 119.354C102.427 119.354 102.165 119.433 101.973 119.593C101.786 119.752 101.693 119.971 101.693 120.249H99.7175C99.7175 119.821 99.8496 119.424 100.114 119.06C100.378 118.695 100.752 118.41 101.235 118.205C101.718 117.995 102.26 117.891 102.862 117.891C103.773 117.891 104.496 118.121 105.029 118.581C105.567 119.037 105.836 119.679 105.836 120.509V123.715C105.84 124.417 105.938 124.948 106.13 125.308V125.424H104.133ZM102.5 124.05C102.791 124.05 103.06 123.986 103.306 123.858C103.552 123.726 103.735 123.551 103.853 123.332V122.061H103.115C102.126 122.061 101.6 122.402 101.536 123.086L101.529 123.202C101.529 123.448 101.616 123.651 101.789 123.811C101.962 123.97 102.199 124.05 102.5 124.05Z" fill="#828282"/>
<g clip-path="url(#clip0)">
<path d="M72.7256 88.8719C80.935 88.8719 87.5938 82.241 87.5938 74.0658V59.2598H72.7256C64.5162 59.2598 57.8574 65.8907 57.8574 74.0658C57.8574 82.241 64.5162 88.8719 72.7256 88.8719Z" fill="#0ACF83"/>
<path d="M57.8574 44.4369C57.8574 36.2618 64.5162 29.6309 72.7256 29.6309H87.5938V59.2612H72.7256C64.5162 59.243 57.8574 52.6121 57.8574 44.4369Z" fill="#A259FF"/>
<path d="M57.8574 14.8061C57.8574 6.63094 64.5162 0 72.7256 0H87.5938V29.6303H72.7256C64.5162 29.6303 57.8574 22.9812 57.8574 14.8061Z" fill="#F24E1E"/>
<path d="M87.6118 0H102.48C110.689 0 117.348 6.63094 117.348 14.8061C117.348 22.9812 110.689 29.6122 102.48 29.6122H87.6118V0Z" fill="#FF7262"/>
<path d="M117.348 44.4369C117.348 52.6121 110.689 59.243 102.48 59.243C94.2706 59.243 87.6118 52.6121 87.6118 44.4369C87.6118 36.2618 94.2706 29.6309 102.48 29.6309C110.689 29.6309 117.348 36.2618 117.348 44.4369Z" fill="#1ABCFE"/>
</g>
<path d="M12.3645 181.883C12.6683 180.971 13.9581 180.971 14.262 181.883L16.0744 187.322C16.2105 187.731 16.5926 188.006 17.0231 188.006H22.8337C23.8085 188.006 24.2072 189.258 23.4118 189.822L18.7545 193.122C18.3952 193.376 18.2447 193.836 18.3839 194.254L20.173 199.623C20.4785 200.54 19.4348 201.314 18.6462 200.755L13.8914 197.387C13.545 197.141 13.0815 197.141 12.7351 197.387L7.98032 200.755C7.19173 201.314 6.14798 200.54 6.45348 199.623L8.24255 194.254C8.38175 193.836 8.23126 193.376 7.87194 193.122L3.21467 189.822C2.41927 189.258 2.81798 188.006 3.79278 188.006H9.60337C10.0339 188.006 10.416 187.731 10.5521 187.322L12.3645 181.883Z" fill="#070707"/>
<path d="M48.2083 181.883C48.5121 180.971 49.8019 180.971 50.1057 181.883L51.9181 187.322C52.0542 187.731 52.4364 188.006 52.8669 188.006H58.6775C59.6523 188.006 60.051 189.258 59.2556 189.822L54.5983 193.122C54.239 193.376 54.0885 193.836 54.2277 194.254L56.0168 199.623C56.3223 200.54 55.2785 201.314 54.4899 200.755L49.7351 197.387C49.3888 197.141 48.9252 197.141 48.5789 197.387L43.8241 200.755C43.0355 201.314 41.9917 200.54 42.2972 199.623L44.0863 194.254C44.2255 193.836 44.075 193.376 43.7157 193.122L39.0584 189.822C38.263 189.258 38.6617 188.006 39.6365 188.006H45.4471C45.8776 188.006 46.2598 187.731 46.3958 187.322L48.2083 181.883Z" fill="#070707"/>
<path d="M84.051 181.883C84.3549 180.971 85.6447 180.971 85.9485 181.883L87.7609 187.322C87.897 187.731 88.2792 188.006 88.7096 188.006H94.5202C95.495 188.006 95.8937 189.258 95.0983 189.822L90.4411 193.122C90.0817 193.376 89.9313 193.836 90.0705 194.254L91.8595 199.623C92.165 200.54 91.1213 201.314 90.3327 200.755L85.5779 197.387C85.2315 197.141 84.768 197.141 84.4217 197.387L79.6668 200.755C78.8783 201.314 77.8345 200.54 78.14 199.623L79.9291 194.254C80.0683 193.836 79.9178 193.376 79.5585 193.122L74.9012 189.822C74.1058 189.258 74.5045 188.006 75.4793 188.006H81.2899C81.7204 188.006 82.1025 187.731 82.2386 187.322L84.051 181.883Z" fill="#070707"/>
<path d="M119.894 181.883C120.198 180.971 121.488 180.971 121.792 181.883L123.604 187.322C123.74 187.731 124.122 188.006 124.553 188.006H130.363C131.338 188.006 131.737 189.258 130.942 189.822L126.284 193.122C125.925 193.376 125.775 193.836 125.914 194.254L127.703 199.623C128.008 200.54 126.965 201.314 126.176 200.755L121.421 197.387C121.075 197.141 120.611 197.141 120.265 197.387L115.51 200.755C114.722 201.314 113.678 200.54 113.983 199.623L115.772 194.254C115.912 193.836 115.761 193.376 115.402 193.122L110.744 189.822C109.949 189.258 110.348 188.006 111.323 188.006H117.133C117.564 188.006 117.946 187.731 118.082 187.322L119.894 181.883Z" fill="#070707"/>
<path d="M155.738 181.883C156.042 180.971 157.332 180.971 157.635 181.883L159.448 187.322C159.584 187.731 159.966 188.006 160.397 188.006H166.207C167.182 188.006 167.581 189.258 166.785 189.822L162.128 193.122C161.769 193.376 161.618 193.836 161.757 194.254L163.547 199.623C163.852 200.54 162.808 201.314 162.02 200.755L157.265 197.387C156.919 197.141 156.455 197.141 156.109 197.387L151.354 200.755C150.565 201.314 149.522 200.54 149.827 199.623L151.616 194.254C151.755 193.836 151.605 193.376 151.245 193.122L146.588 189.822C145.793 189.258 146.192 188.006 147.166 188.006H152.977C153.407 188.006 153.79 187.731 153.926 187.322L155.738 181.883Z" fill="#070707"/>
<defs>
<clipPath id="clip0">
<rect width="59.4909" height="88.8728" fill="white" transform="translate(57.8574)"/>
</clipPath>
</defs>
</svg>
