<svg width="170" height="205" viewBox="0 0 170 205" fill="none" xmlns="http://www.w3.org/2000/svg">
<path d="M69.7531 121.859H66.1574L65.4738 123.91H63.2931L66.9982 113.957H68.8986L72.6241 123.91H70.4435L69.7531 121.859ZM66.7111 120.198H69.1993L67.9484 116.473L66.7111 120.198ZM73.1163 120.157C73.1163 119.004 73.3738 118.086 73.8888 117.402C74.4083 116.719 75.117 116.377 76.0148 116.377C76.7348 116.377 77.3296 116.646 77.799 117.184V113.41H79.7814V123.91H77.9972L77.9015 123.124C77.4093 123.739 76.7758 124.047 76.0011 124.047C75.1307 124.047 74.4311 123.705 73.9025 123.021C73.3784 122.333 73.1163 121.379 73.1163 120.157ZM75.0919 120.301C75.0919 120.993 75.2127 121.524 75.4542 121.894C75.6958 122.263 76.0467 122.447 76.507 122.447C77.1176 122.447 77.5483 122.19 77.799 121.675V118.756C77.5529 118.241 77.1268 117.983 76.5206 117.983C75.5682 117.983 75.0919 118.756 75.0919 120.301ZM81.005 120.144C81.005 119.41 81.1463 118.756 81.4288 118.182C81.7114 117.607 82.117 117.163 82.6456 116.849C83.1788 116.534 83.7963 116.377 84.4982 116.377C85.4962 116.377 86.3097 116.682 86.9386 117.293C87.5721 117.904 87.9253 118.733 87.9982 119.781L88.0118 120.287C88.0118 121.422 87.6951 122.333 87.0616 123.021C86.4282 123.705 85.5783 124.047 84.5118 124.047C83.4454 124.047 82.5932 123.705 81.9552 123.021C81.3217 122.338 81.005 121.408 81.005 120.232V120.144ZM82.9806 120.287C82.9806 120.989 83.1128 121.527 83.3771 121.9C83.6414 122.27 84.0197 122.454 84.5118 122.454C84.9904 122.454 85.3641 122.272 85.6329 121.907C85.9018 121.538 86.0363 120.95 86.0363 120.144C86.0363 119.455 85.9018 118.922 85.6329 118.544C85.3641 118.166 84.9858 117.977 84.4982 117.977C84.0151 117.977 83.6414 118.166 83.3771 118.544C83.1128 118.918 82.9806 119.499 82.9806 120.287ZM95.8937 120.28C95.8937 121.465 95.6408 122.39 95.1349 123.056C94.629 123.716 93.9227 124.047 93.0158 124.047C92.2137 124.047 91.5734 123.739 91.0949 123.124L91.006 123.91H89.2286V113.41H91.2042V117.177C91.66 116.644 92.2592 116.377 93.0021 116.377C93.9044 116.377 94.6108 116.71 95.1212 117.375C95.6362 118.036 95.8937 118.968 95.8937 120.171V120.28ZM93.9181 120.137C93.9181 119.389 93.7996 118.845 93.5626 118.503C93.3256 118.157 92.9725 117.983 92.5031 117.983C91.8741 117.983 91.4412 118.241 91.2042 118.756V121.675C91.4458 122.194 91.8833 122.454 92.5167 122.454C93.1547 122.454 93.574 122.14 93.7745 121.511C93.8702 121.21 93.9181 120.752 93.9181 120.137ZM100.522 124.047C99.437 124.047 98.5529 123.714 97.8693 123.049C97.1902 122.383 96.8507 121.497 96.8507 120.39V120.198C96.8507 119.455 96.9943 118.792 97.2814 118.209C97.5685 117.621 97.9741 117.17 98.4982 116.855C99.0268 116.536 99.6284 116.377 100.303 116.377C101.315 116.377 102.11 116.696 102.689 117.334C103.272 117.972 103.564 118.877 103.564 120.048V120.854H98.8536C98.9174 121.338 99.1088 121.725 99.4279 122.017C99.7514 122.308 100.159 122.454 100.651 122.454C101.413 122.454 102.007 122.178 102.436 121.627L103.406 122.714C103.11 123.133 102.709 123.461 102.203 123.698C101.697 123.931 101.137 124.047 100.522 124.047ZM100.296 117.977C99.9041 117.977 99.5851 118.109 99.339 118.373C99.0975 118.637 98.9425 119.016 98.8741 119.508H101.622V119.351C101.613 118.913 101.495 118.576 101.267 118.339C101.039 118.097 100.715 117.977 100.296 117.977ZM57.7697 139.91H55.7189V129.957H57.7697V139.91ZM61.632 139.91H59.6495V129.41H61.632V139.91ZM65.3507 139.91H63.3683V129.41H65.3507V139.91ZM71.4142 139.158C70.9266 139.751 70.2521 140.047 69.3908 140.047C68.5978 140.047 67.9917 139.819 67.5724 139.363C67.1577 138.908 66.9458 138.24 66.9366 137.36V132.514H68.9122V137.292C68.9122 138.062 69.2631 138.447 69.965 138.447C70.6349 138.447 71.0952 138.215 71.3458 137.75V132.514H73.3283V139.91H71.4689L71.4142 139.158ZM78.8243 137.866C78.8243 137.625 78.7036 137.436 78.462 137.299C78.2251 137.158 77.8422 137.032 77.3136 136.923C75.5545 136.554 74.6749 135.806 74.6749 134.681C74.6749 134.024 74.9461 133.478 75.4884 133.04C76.0353 132.598 76.7485 132.377 77.6281 132.377C78.5669 132.377 79.3165 132.598 79.8771 133.04C80.4422 133.482 80.7247 134.056 80.7247 134.763H78.7491C78.7491 134.48 78.658 134.248 78.4757 134.065C78.2934 133.879 78.0086 133.785 77.6212 133.785C77.2885 133.785 77.0311 133.86 76.8488 134.011C76.6665 134.161 76.5753 134.353 76.5753 134.585C76.5753 134.804 76.6779 134.981 76.8829 135.118C77.0926 135.25 77.4435 135.367 77.9357 135.467C78.4279 135.562 78.8426 135.672 79.1798 135.795C80.2234 136.178 80.7452 136.841 80.7452 137.784C80.7452 138.459 80.4559 139.006 79.8771 139.425C79.2983 139.84 78.5509 140.047 77.6349 140.047C77.0151 140.047 76.4637 139.938 75.9806 139.719C75.5021 139.495 75.1261 139.192 74.8527 138.81C74.5792 138.422 74.4425 138.005 74.4425 137.559H76.3156C76.3338 137.91 76.4637 138.178 76.7052 138.365C76.9467 138.552 77.2703 138.646 77.6759 138.646C78.0542 138.646 78.339 138.575 78.5304 138.434C78.7264 138.288 78.8243 138.099 78.8243 137.866ZM84.3888 130.695V132.514H85.6534V133.963H84.3888V137.654C84.3888 137.928 84.4412 138.124 84.546 138.242C84.6508 138.361 84.8514 138.42 85.1476 138.42C85.3663 138.42 85.56 138.404 85.7286 138.372V139.869C85.3413 139.988 84.9425 140.047 84.5324 140.047C83.1469 140.047 82.4406 139.347 82.4132 137.948V133.963H81.3331V132.514H82.4132V130.695H84.3888ZM90.9103 134.366C90.6414 134.33 90.4044 134.312 90.1993 134.312C89.4519 134.312 88.962 134.564 88.7296 135.07V139.91H86.754V132.514H88.6202L88.6749 133.396C89.0714 132.716 89.6206 132.377 90.3224 132.377C90.5411 132.377 90.7462 132.407 90.9376 132.466L90.9103 134.366ZM95.9484 139.91C95.8572 139.732 95.7911 139.511 95.7501 139.247C95.2716 139.78 94.6495 140.047 93.8839 140.047C93.1593 140.047 92.5577 139.837 92.0792 139.418C91.6053 138.999 91.3683 138.47 91.3683 137.832C91.3683 137.048 91.6577 136.447 92.2365 136.027C92.8198 135.608 93.6606 135.396 94.7589 135.392H95.6681V134.968C95.6681 134.626 95.5792 134.353 95.4015 134.147C95.2283 133.942 94.9526 133.84 94.5743 133.84C94.2417 133.84 93.9796 133.92 93.7882 134.079C93.6014 134.239 93.5079 134.457 93.5079 134.735H91.5324C91.5324 134.307 91.6645 133.91 91.9288 133.546C92.1932 133.181 92.5669 132.896 93.0499 132.691C93.533 132.482 94.0753 132.377 94.6769 132.377C95.5883 132.377 96.3107 132.607 96.8439 133.067C97.3816 133.523 97.6505 134.166 97.6505 134.995V138.201C97.6551 138.903 97.7531 139.434 97.9445 139.794V139.91H95.9484ZM94.3146 138.536C94.6062 138.536 94.8751 138.472 95.1212 138.345C95.3673 138.213 95.5496 138.037 95.6681 137.818V136.547H94.9298C93.9409 136.547 93.4145 136.889 93.3507 137.572L93.3439 137.688C93.3439 137.935 93.4305 138.137 93.6036 138.297C93.7768 138.456 94.0138 138.536 94.3146 138.536ZM101.533 130.695V132.514H102.798V133.963H101.533V137.654C101.533 137.928 101.586 138.124 101.691 138.242C101.795 138.361 101.996 138.42 102.292 138.42C102.511 138.42 102.705 138.404 102.873 138.372V139.869C102.486 139.988 102.087 140.047 101.677 140.047C100.291 140.047 99.5851 139.347 99.5577 137.948V133.963H98.4777V132.514H99.5577V130.695H101.533ZM103.386 136.144C103.386 135.41 103.527 134.756 103.81 134.182C104.092 133.607 104.498 133.163 105.026 132.849C105.56 132.534 106.177 132.377 106.879 132.377C107.877 132.377 108.691 132.682 109.319 133.293C109.953 133.904 110.306 134.733 110.379 135.781L110.393 136.287C110.393 137.422 110.076 138.333 109.443 139.021C108.809 139.705 107.959 140.047 106.893 140.047C105.826 140.047 104.974 139.705 104.336 139.021C103.703 138.338 103.386 137.408 103.386 136.232V136.144ZM105.361 136.287C105.361 136.989 105.494 137.527 105.758 137.9C106.022 138.27 106.401 138.454 106.893 138.454C107.371 138.454 107.745 138.272 108.014 137.907C108.283 137.538 108.417 136.95 108.417 136.144C108.417 135.455 108.283 134.922 108.014 134.544C107.745 134.166 107.367 133.977 106.879 133.977C106.396 133.977 106.022 134.166 105.758 134.544C105.494 134.918 105.361 135.499 105.361 136.287ZM115.766 134.366C115.497 134.33 115.26 134.312 115.055 134.312C114.307 134.312 113.818 134.564 113.585 135.07V139.91H111.61V132.514H113.476L113.53 133.396C113.927 132.716 114.476 132.377 115.178 132.377C115.397 132.377 115.602 132.407 115.793 132.466L115.766 134.366Z" fill="#828282"/>
<path d="M43.4897 3.75977H126.989V84.2652H43.4897V3.75977Z" fill="url(#paint0_radial)"/>
<path d="M43.4899 3.76042H126.989V84.2659H43.4899V3.76042ZM39.6953 88.0263H130.802V0H39.6953V88.0263ZM99.3687 31.385C99.3687 31.0777 99.4781 30.9331 99.8248 30.9331H105.79C106.1 30.9331 106.246 31.0415 106.246 31.385V61.0706C106.246 61.378 106.173 61.5226 105.79 61.5226H99.8977C99.5146 61.5226 99.4052 61.3418 99.4052 61.0345V31.385H99.3687ZM98.9491 22.8337C98.9491 20.4292 100.664 19.001 102.817 19.001C105.134 19.001 106.684 20.5377 106.684 22.8337C106.684 25.3105 105.061 26.6664 102.744 26.6664C100.554 26.6845 98.9491 25.3286 98.9491 22.8337ZM81.8735 43.751C80.8154 39.5748 78.2978 30.4811 77.3492 26.0698H77.2762C76.4735 30.463 74.4668 37.9115 72.8796 43.751H81.8735ZM71.3289 49.8436L68.3371 61.1249C68.2641 61.4322 68.1546 61.5045 67.7715 61.5045H62.1891C61.806 61.5045 61.733 61.396 61.806 60.9441L72.5877 23.5568C72.7702 22.8879 72.8979 22.2732 72.9708 20.4292C72.9708 20.158 73.0803 20.0495 73.281 20.0495H81.2532C81.5269 20.0495 81.6363 20.1218 81.7093 20.4292L93.7863 61.0164C93.8593 61.3237 93.7863 61.5045 93.4761 61.5045H87.1823C86.8721 61.5045 86.6897 61.4322 86.6167 61.161L83.4971 49.8436H71.3289Z" fill="#FF7F18"/>
<path d="M12.365 181.992C12.6697 181.082 13.9568 181.082 14.2615 181.992L16.0738 187.405C16.2103 187.813 16.5921 188.088 17.022 188.088H22.8213C23.7972 188.088 24.1951 189.342 23.3975 189.905L18.7579 193.176C18.3969 193.431 18.2457 193.892 18.3859 194.311L20.1702 199.64C20.4769 200.556 19.4352 201.331 18.6457 200.775L13.8895 197.421C13.544 197.178 13.0826 197.178 12.737 197.421L7.98087 200.775C7.19135 201.331 6.14966 200.556 6.45637 199.64L8.24062 194.311C8.38087 193.892 8.22964 193.431 7.8686 193.176L3.22903 189.905C2.43139 189.342 2.8293 188.088 3.80528 188.088H9.60451C10.0344 188.088 10.4163 187.813 10.5528 187.405L12.365 181.992Z" fill="#070707"/>
<path d="M48.2088 181.992C48.5134 181.082 49.8006 181.082 50.1053 181.992L51.9175 187.405C52.054 187.813 52.4358 188.088 52.8658 188.088H58.665C59.641 188.088 60.0389 189.342 59.2413 189.905L54.6017 193.176C54.2407 193.431 54.0894 193.892 54.2297 194.311L56.0139 199.64C56.3206 200.556 55.2789 201.331 54.4894 200.775L49.7333 197.421C49.3877 197.178 48.9263 197.178 48.5808 197.421L43.8246 200.775C43.0351 201.331 41.9934 200.556 42.3001 199.64L44.0844 194.311C44.2246 193.892 44.0734 193.431 43.7123 193.176L39.0728 189.905C38.2751 189.342 38.6731 188.088 39.649 188.088H45.4483C45.8782 188.088 46.26 187.813 46.3965 187.405L48.2088 181.992Z" fill="#070707"/>
<path d="M84.0525 181.992C84.3572 181.082 85.6443 181.082 85.949 181.992L87.7613 187.405C87.8978 187.813 88.2796 188.088 88.7095 188.088H94.5088C95.4847 188.088 95.8826 189.342 95.085 189.905L90.4454 193.176C90.0844 193.431 89.9332 193.892 90.0734 194.311L91.8577 199.64C92.1644 200.556 91.1227 201.331 90.3332 200.775L85.577 197.421C85.2315 197.178 84.7701 197.178 84.4245 197.421L79.6684 200.775C78.8788 201.331 77.8372 200.556 78.1439 199.64L79.9281 194.311C80.0684 193.892 79.9171 193.431 79.5561 193.176L74.9165 189.905C74.1189 189.342 74.5168 188.088 75.4928 188.088H81.292C81.7219 188.088 82.1038 187.813 82.2403 187.405L84.0525 181.992Z" fill="#070707"/>
<path d="M119.895 181.992C120.2 181.082 121.487 181.082 121.792 181.992L123.604 187.405C123.741 187.813 124.122 188.088 124.552 188.088H130.352C131.328 188.088 131.725 189.342 130.928 189.905L126.288 193.176C125.927 193.431 125.776 193.892 125.916 194.311L127.7 199.64C128.007 200.556 126.965 201.331 126.176 200.775L121.42 197.421C121.074 197.178 120.613 197.178 120.267 197.421L115.511 200.775C114.722 201.331 113.68 200.556 113.987 199.64L115.771 194.311C115.911 193.892 115.76 193.431 115.399 193.176L110.759 189.905C109.962 189.342 110.36 188.088 111.336 188.088H117.135C117.565 188.088 117.947 187.813 118.083 187.405L119.895 181.992Z" fill="#E5E5E5"/>
<path d="M155.738 181.992C156.043 181.082 157.33 181.082 157.635 181.992L159.447 187.405C159.583 187.813 159.965 188.088 160.395 188.088H166.194C167.17 188.088 167.568 189.342 166.771 189.905L162.131 193.176C161.77 193.431 161.619 193.892 161.759 194.311L163.543 199.64C163.85 200.556 162.808 201.331 162.019 200.775L157.263 197.421C156.917 197.178 156.456 197.178 156.11 197.421L151.354 200.775C150.564 201.331 149.523 200.556 149.829 199.64L151.614 194.311C151.754 193.892 151.603 193.431 151.242 193.176L146.602 189.905C145.804 189.342 146.202 188.088 147.178 188.088H152.978C153.407 188.088 153.789 187.813 153.926 187.405L155.738 181.992Z" fill="#E5E5E5"/>
<defs>
<radialGradient id="paint0_radial" cx="0" cy="0" r="1" gradientUnits="userSpaceOnUse" gradientTransform="translate(71.0175 21.825) scale(63.4619 60.8896)">
<stop stop-color="#423325" stop-opacity="0.98"/>
<stop offset="1" stop-color="#1C0A00"/>
</radialGradient>
</defs>
</svg>
