<svg width="170" height="205" viewBox="0 0 170 205" fill="none" xmlns="http://www.w3.org/2000/svg">
<path d="M43.124 3.75586H126.526V84.1029H43.124V3.75586Z" fill="url(#paint0_radial)"/>
<path d="M43.1243 3.75555H126.526V84.1026H43.1243V3.75555ZM39.3325 87.8581H130.3V0H39.3325V87.8581ZM100.676 36.0569C97.6863 36.0569 96.6654 37.5555 96.6654 38.8013C96.6654 40.1555 97.3399 41.0943 101.369 43.1527C107.312 46.0054 109.171 48.7499 109.171 52.7582C109.171 58.7707 104.541 62.0026 98.2879 62.0026C94.9883 62.0026 92.1444 61.3346 90.522 60.3957C90.2485 60.2873 90.2121 60.0887 90.2121 59.7999V54.2568C90.2121 53.8776 90.3944 53.7693 90.6678 53.9499C93.0559 55.4846 95.7904 56.1707 98.2879 56.1707C101.278 56.1707 102.535 54.9249 102.535 53.2457C102.535 51.8915 101.66 50.6999 97.8322 48.7318C92.4543 46.186 90.2121 43.6041 90.2121 39.2707C90.2121 34.4319 94.0403 30.4055 100.676 30.4055C103.939 30.4055 106.218 30.893 107.458 31.4527C107.767 31.6333 107.84 31.9402 107.84 32.211V37.3568C107.84 37.6638 107.658 37.8443 107.275 37.736C105.598 36.6888 103.137 36.0569 100.676 36.0569ZM68.081 40.5166C68.956 40.5888 69.6306 40.5888 71.1436 40.5888C75.5735 40.5888 79.7481 39.0541 79.7481 33.0777C79.7481 28.311 76.7584 25.9097 71.7088 25.9097C70.1957 25.9097 68.7555 25.9819 68.0628 26.018L68.081 40.5166ZM61.3177 20.5833C61.3177 20.3124 61.8464 20.1319 62.1563 20.1319C64.5809 20.0236 68.1904 19.9513 71.9275 19.9513C82.4279 19.9513 86.5296 25.6569 86.5296 32.9333C86.5296 42.4666 79.5476 46.5652 70.9796 46.5652C69.5394 46.5652 69.0472 46.4929 68.0263 46.4929V60.9012C68.0263 61.2082 67.9169 61.3526 67.5706 61.3526H61.7735C61.4636 61.3526 61.3177 61.2443 61.3177 60.9012V20.5833Z" fill="#31C5F0"/>
<path d="M70.6187 122.861H67.023L66.3394 124.912H64.1587L67.8638 114.959H69.7642L73.4898 124.912H71.3091L70.6187 122.861ZM67.5767 121.2H70.065L68.814 117.475L67.5767 121.2ZM73.982 121.159C73.982 120.006 74.2395 119.088 74.7544 118.404C75.274 117.721 75.9826 117.379 76.8804 117.379C77.6005 117.379 78.1952 117.648 78.6646 118.186V114.412H80.647V124.912H78.8628L78.7671 124.126C78.2749 124.741 77.6415 125.049 76.8667 125.049C75.9963 125.049 75.2967 124.707 74.7681 124.023C74.244 123.335 73.982 122.381 73.982 121.159ZM75.9576 121.303C75.9576 121.995 76.0783 122.526 76.3199 122.896C76.5614 123.265 76.9123 123.449 77.3726 123.449C77.9833 123.449 78.4139 123.192 78.6646 122.677V119.758C78.4185 119.243 77.9924 118.985 77.3863 118.985C76.4338 118.985 75.9576 119.758 75.9576 121.303ZM81.8706 121.146C81.8706 120.412 82.0119 119.758 82.2945 119.184C82.577 118.609 82.9826 118.165 83.5113 117.851C84.0445 117.536 84.662 117.379 85.3638 117.379C86.3619 117.379 87.1753 117.684 87.8042 118.295C88.4377 118.906 88.7909 119.735 88.8638 120.783L88.8775 121.289C88.8775 122.424 88.5607 123.335 87.9273 124.023C87.2938 124.707 86.4439 125.049 85.3775 125.049C84.3111 125.049 83.4589 124.707 82.8208 124.023C82.1874 123.34 81.8706 122.41 81.8706 121.234V121.146ZM83.8462 121.289C83.8462 121.991 83.9784 122.529 84.2427 122.902C84.507 123.271 84.8853 123.456 85.3775 123.456C85.856 123.456 86.2297 123.274 86.4986 122.909C86.7674 122.54 86.9019 121.952 86.9019 121.146C86.9019 120.457 86.7674 119.924 86.4986 119.546C86.2297 119.168 85.8514 118.979 85.3638 118.979C84.8807 118.979 84.507 119.168 84.2427 119.546C83.9784 119.92 83.8462 120.501 83.8462 121.289ZM96.7593 121.282C96.7593 122.467 96.5064 123.392 96.0005 124.058C95.4947 124.718 94.7883 125.049 93.8814 125.049C93.0793 125.049 92.439 124.741 91.9605 124.126L91.8716 124.912H90.0943V114.412H92.0699V118.179C92.5256 117.646 93.1249 117.379 93.8677 117.379C94.7701 117.379 95.4764 117.712 95.9869 118.377C96.5018 119.038 96.7593 119.97 96.7593 121.173V121.282ZM94.7837 121.139C94.7837 120.391 94.6652 119.847 94.4283 119.505C94.1913 119.159 93.8381 118.985 93.3687 118.985C92.7398 118.985 92.3068 119.243 92.0699 119.758V122.677C92.3114 123.196 92.7489 123.456 93.3824 123.456C94.0204 123.456 94.4397 123.142 94.6402 122.513C94.7359 122.212 94.7837 121.754 94.7837 121.139ZM101.387 125.049C100.303 125.049 99.4185 124.716 98.7349 124.051C98.0559 123.385 97.7163 122.499 97.7163 121.392V121.2C97.7163 120.457 97.8599 119.794 98.147 119.211C98.4341 118.623 98.8397 118.172 99.3638 117.857C99.8924 117.538 100.494 117.379 101.168 117.379C102.18 117.379 102.975 117.698 103.554 118.336C104.138 118.974 104.429 119.879 104.429 121.05V121.856H99.7193C99.7831 122.34 99.9745 122.727 100.293 123.019C100.617 123.31 101.025 123.456 101.517 123.456C102.278 123.456 102.873 123.18 103.301 122.629L104.272 123.716C103.976 124.135 103.575 124.463 103.069 124.7C102.563 124.933 102.002 125.049 101.387 125.049ZM101.162 118.979C100.77 118.979 100.451 119.111 100.205 119.375C99.9631 119.639 99.8081 120.018 99.7398 120.51H102.488V120.353C102.479 119.915 102.36 119.578 102.132 119.341C101.904 119.099 101.581 118.979 101.162 118.979ZM53.3579 137.405V140.912H51.3072V130.959H55.19C55.9374 130.959 56.5936 131.096 57.1587 131.369C57.7284 131.643 58.1659 132.032 58.4712 132.538C58.7766 133.039 58.9292 133.611 58.9292 134.254C58.9292 135.229 58.5943 135.999 57.9244 136.564C57.259 137.125 56.3361 137.405 55.1558 137.405H53.3579ZM53.3579 135.744H55.19C55.7323 135.744 56.1447 135.617 56.4273 135.361C56.7144 135.106 56.8579 134.742 56.8579 134.268C56.8579 133.78 56.7144 133.386 56.4273 133.085C56.1402 132.784 55.7437 132.629 55.2378 132.62H53.3579V135.744ZM62.1421 134.322C62.6662 133.693 63.3247 133.379 64.1177 133.379C65.7219 133.379 66.5354 134.311 66.5581 136.175V140.912H64.5826V136.229C64.5826 135.806 64.4914 135.493 64.3091 135.293C64.1268 135.088 63.8238 134.985 63.3999 134.985C62.8212 134.985 62.4019 135.209 62.1421 135.655V140.912H60.1665V130.412H62.1421V134.322ZM67.7408 137.146C67.7408 136.412 67.882 135.758 68.1646 135.184C68.4471 134.609 68.8527 134.165 69.3814 133.851C69.9146 133.536 70.5321 133.379 71.2339 133.379C72.232 133.379 73.0454 133.684 73.6744 134.295C74.3078 134.906 74.661 135.735 74.7339 136.783L74.7476 137.289C74.7476 138.424 74.4309 139.335 73.7974 140.023C73.1639 140.707 72.314 141.049 71.2476 141.049C70.1812 141.049 69.329 140.707 68.691 140.023C68.0575 139.34 67.7408 138.41 67.7408 137.234V137.146ZM69.7163 137.289C69.7163 137.991 69.8485 138.529 70.1128 138.902C70.3772 139.271 70.7554 139.456 71.2476 139.456C71.7261 139.456 72.0998 139.274 72.3687 138.909C72.6376 138.54 72.772 137.952 72.772 137.146C72.772 136.457 72.6376 135.924 72.3687 135.546C72.0998 135.168 71.7216 134.979 71.2339 134.979C70.7508 134.979 70.3772 135.168 70.1128 135.546C69.8485 135.92 69.7163 136.501 69.7163 137.289ZM78.3296 131.697V133.516H79.5943V134.965H78.3296V138.656C78.3296 138.93 78.382 139.126 78.4869 139.244C78.5917 139.363 78.7922 139.422 79.0884 139.422C79.3072 139.422 79.5008 139.406 79.6695 139.374V140.871C79.2821 140.99 78.8833 141.049 78.4732 141.049C77.0878 141.049 76.3814 140.349 76.354 138.95V134.965H75.274V133.516H76.354V131.697H78.3296ZM80.1822 137.146C80.1822 136.412 80.3234 135.758 80.606 135.184C80.8885 134.609 81.2941 134.165 81.8228 133.851C82.356 133.536 82.9735 133.379 83.6753 133.379C84.6734 133.379 85.4869 133.684 86.1158 134.295C86.7492 134.906 87.1024 135.735 87.1753 136.783L87.189 137.289C87.189 138.424 86.8723 139.335 86.2388 140.023C85.6053 140.707 84.7554 141.049 83.689 141.049C82.6226 141.049 81.7704 140.707 81.1324 140.023C80.4989 139.34 80.1822 138.41 80.1822 137.234V137.146ZM82.1577 137.289C82.1577 137.991 82.2899 138.529 82.5542 138.902C82.8186 139.271 83.1968 139.456 83.689 139.456C84.1675 139.456 84.5412 139.274 84.8101 138.909C85.079 138.54 85.2134 137.952 85.2134 137.146C85.2134 136.457 85.079 135.924 84.8101 135.546C84.5412 135.168 84.163 134.979 83.6753 134.979C83.1923 134.979 82.8186 135.168 82.5542 135.546C82.2899 135.92 82.1577 136.501 82.1577 137.289ZM92.4117 138.868C92.4117 138.627 92.2909 138.438 92.0494 138.301C91.8124 138.16 91.4296 138.034 90.9009 137.925C89.1418 137.556 88.2622 136.808 88.2622 135.683C88.2622 135.026 88.5334 134.479 89.0757 134.042C89.6226 133.6 90.3358 133.379 91.2154 133.379C92.1542 133.379 92.9038 133.6 93.4644 134.042C94.0295 134.484 94.312 135.058 94.312 135.765H92.3365C92.3365 135.482 92.2453 135.25 92.063 135.067C91.8807 134.881 91.5959 134.787 91.2085 134.787C90.8758 134.787 90.6184 134.862 90.4361 135.013C90.2538 135.163 90.1626 135.354 90.1626 135.587C90.1626 135.806 90.2652 135.983 90.4702 136.12C90.6799 136.252 91.0308 136.368 91.523 136.469C92.0152 136.564 92.4299 136.674 92.7671 136.797C93.8107 137.18 94.3326 137.843 94.3326 138.786C94.3326 139.461 94.0432 140.007 93.4644 140.427C92.8856 140.841 92.1382 141.049 91.2222 141.049C90.6024 141.049 90.051 140.939 89.5679 140.721C89.0894 140.497 88.7134 140.194 88.44 139.812C88.1665 139.424 88.0298 139.007 88.0298 138.561H89.9029C89.9211 138.911 90.051 139.18 90.2925 139.367C90.5341 139.554 90.8576 139.647 91.2632 139.647C91.6415 139.647 91.9263 139.577 92.1177 139.436C92.3137 139.29 92.4117 139.101 92.4117 138.868ZM97.5386 134.322C98.0627 133.693 98.7212 133.379 99.5142 133.379C101.118 133.379 101.932 134.311 101.955 136.175V140.912H99.979V136.229C99.979 135.806 99.8879 135.493 99.7056 135.293C99.5233 135.088 99.2202 134.985 98.7964 134.985C98.2176 134.985 97.7984 135.209 97.5386 135.655V140.912H95.563V130.412H97.5386V134.322ZM103.137 137.146C103.137 136.412 103.279 135.758 103.561 135.184C103.844 134.609 104.249 134.165 104.778 133.851C105.311 133.536 105.929 133.379 106.63 133.379C107.628 133.379 108.442 133.684 109.071 134.295C109.704 134.906 110.057 135.735 110.13 136.783L110.144 137.289C110.144 138.424 109.827 139.335 109.194 140.023C108.56 140.707 107.71 141.049 106.644 141.049C105.578 141.049 104.725 140.707 104.087 140.023C103.454 139.34 103.137 138.41 103.137 137.234V137.146ZM105.113 137.289C105.113 137.991 105.245 138.529 105.509 138.902C105.774 139.271 106.152 139.456 106.644 139.456C107.123 139.456 107.496 139.274 107.765 138.909C108.034 138.54 108.168 137.952 108.168 137.146C108.168 136.457 108.034 135.924 107.765 135.546C107.496 135.168 107.118 134.979 106.63 134.979C106.147 134.979 105.774 135.168 105.509 135.546C105.245 135.92 105.113 136.501 105.113 137.289ZM118.019 137.282C118.019 138.422 117.759 139.335 117.24 140.023C116.725 140.707 116.028 141.049 115.148 141.049C114.401 141.049 113.797 140.789 113.336 140.27V143.756H111.361V133.516H113.193L113.261 134.24C113.74 133.666 114.364 133.379 115.134 133.379C116.046 133.379 116.754 133.716 117.26 134.391C117.766 135.065 118.019 135.995 118.019 137.18V137.282ZM116.043 137.139C116.043 136.451 115.92 135.92 115.674 135.546C115.433 135.172 115.08 134.985 114.615 134.985C113.995 134.985 113.569 135.222 113.336 135.696V138.725C113.578 139.212 114.009 139.456 114.628 139.456C115.572 139.456 116.043 138.684 116.043 137.139Z" fill="#828282"/>
<path d="M12.365 181.994C12.6697 181.084 13.9568 181.084 14.2615 181.994L16.0737 187.406C16.2102 187.814 16.592 188.089 17.022 188.089H22.8209C23.7969 188.089 24.1948 189.343 23.3971 189.906L18.758 193.176C18.3969 193.431 18.2457 193.892 18.3859 194.311L20.1701 199.639C20.4768 200.555 19.4352 201.331 18.6456 200.774L13.8894 197.421C13.5439 197.178 13.0826 197.178 12.737 197.421L7.98087 200.774C7.19133 201.331 6.14968 200.555 6.45642 199.639L8.24055 194.311C8.38083 193.892 8.22958 193.431 7.8685 193.176L3.22936 189.906C2.43167 189.343 2.82956 188.089 3.80556 188.089H9.60451C10.0344 188.089 10.4163 187.814 10.5528 187.406L12.365 181.994Z" fill="#070707"/>
<path d="M48.2087 181.994C48.5134 181.084 49.8005 181.084 50.1052 181.994L51.9175 187.406C52.054 187.814 52.4358 188.089 52.8657 188.089H58.6647C59.6407 188.089 60.0386 189.343 59.2409 189.906L54.6017 193.176C54.2407 193.431 54.0894 193.892 54.2297 194.311L56.0138 199.639C56.3206 200.555 55.2789 201.331 54.4894 200.774L49.7332 197.421C49.3877 197.178 48.9263 197.178 48.5808 197.421L43.8246 200.774C43.0351 201.331 41.9934 200.555 42.3002 199.639L44.0843 194.311C44.2246 193.892 44.0733 193.431 43.7123 193.176L39.0731 189.906C38.2754 189.343 38.6733 188.089 39.6493 188.089H45.4483C45.8782 188.089 46.26 187.814 46.3965 187.406L48.2087 181.994Z" fill="#070707"/>
<path d="M84.0515 181.994C84.3562 181.084 85.6433 181.084 85.948 181.994L87.7602 187.406C87.8968 187.814 88.2786 188.089 88.7085 188.089H94.5075C95.4834 188.089 95.8813 189.343 95.0837 189.906L90.4445 193.176C90.0834 193.431 89.9322 193.892 90.0725 194.311L91.8566 199.639C92.1633 200.555 91.1217 201.331 90.3321 200.774L85.576 197.421C85.2304 197.178 84.7691 197.178 84.4236 197.421L79.6674 200.774C78.8778 201.331 77.8362 200.555 78.1429 199.639L79.9271 194.311C80.0674 193.892 79.9161 193.431 79.555 193.176L74.9159 189.906C74.1182 189.343 74.5161 188.089 75.4921 188.089H81.291C81.721 188.089 82.1028 187.814 82.2393 187.406L84.0515 181.994Z" fill="#070707"/>
<path d="M119.895 181.994C120.199 181.084 121.487 181.084 121.791 181.994L123.604 187.406C123.74 187.814 124.122 188.089 124.552 188.089H130.351C131.327 188.089 131.725 189.343 130.927 189.906L126.288 193.176C125.927 193.431 125.775 193.892 125.916 194.311L127.7 199.639C128.007 200.555 126.965 201.331 126.175 200.774L121.419 197.421C121.074 197.178 120.612 197.178 120.267 197.421L115.511 200.774C114.721 201.331 113.679 200.555 113.986 199.639L115.77 194.311C115.911 193.892 115.759 193.431 115.398 193.176L110.759 189.906C109.961 189.343 110.359 188.089 111.335 188.089H117.134C117.564 188.089 117.946 187.814 118.083 187.406L119.895 181.994Z" fill="#070707"/>
<path d="M155.739 181.994C156.043 181.084 157.33 181.084 157.635 181.994L159.447 187.406C159.584 187.814 159.966 188.089 160.396 188.089H166.194C167.17 188.089 167.568 189.343 166.771 189.906L162.132 193.176C161.77 193.431 161.619 193.892 161.759 194.311L163.544 199.639C163.85 200.555 162.809 201.331 162.019 200.774L157.263 197.421C156.917 197.178 156.456 197.178 156.111 197.421L151.354 200.774C150.565 201.331 149.523 200.555 149.83 199.639L151.614 194.311C151.754 193.892 151.603 193.431 151.242 193.176L146.603 189.906C145.805 189.343 146.203 188.089 147.179 188.089H152.978C153.408 188.089 153.79 187.814 153.926 187.406L155.739 181.994Z" fill="#E5E5E5"/>
<defs>
<radialGradient id="paint0_radial" cx="0" cy="0" r="1" gradientUnits="userSpaceOnUse" gradientTransform="translate(70.6005 21.7818) scale(63.3759 60.7726)">
<stop stop-color="#34364E" stop-opacity="0.98"/>
<stop offset="1" stop-color="#0C0824"/>
</radialGradient>
</defs>
</svg>
